<svg xmlns="http://www.w3.org/2000/svg" viewBox="0 0 32 32" width="32" height="32">
  <defs>
    <linearGradient id="lg" x1="0%" y1="0%" x2="100%" y2="100%">
      <stop offset="0%" stop-color="#3DBC7F"/>
      <stop offset="100%" stop-color="#1A7A48"/>
    </linearGradient>
  </defs>

  <!-- Doc body -->
  <rect x="2" y="3" width="19" height="26" rx="2.5" fill="#1E2C25"/>
  <!-- Fold corner -->
  <path d="M15 3 L21 3 L21 9 Z" fill="#1E2C25"/>
  <path d="M15 3 L21 9 L15 9 Z" fill="#0F1A14"/>
  <!-- Lines -->
  <line x1="5" y1="14" x2="13" y2="14" stroke="#3D5A4A" stroke-width="1.5" stroke-linecap="round"/>
  <line x1="5" y1="18" x2="17" y2="18" stroke="#3D5A4A" stroke-width="1.5" stroke-linecap="round"/>
  <line x1="5" y1="22" x2="15" y2="22" stroke="#3D5A4A" stroke-width="1.5" stroke-linecap="round"/>

  <!-- Leaf -->
  <path d="M15 4 C18 0, 29 1, 28 9 C27 17, 16 15, 15 4 Z" fill="url(#lg)"/>
  <!-- Leaf vein -->
  <path d="M15 4 C20 8, 25 11, 28 9" fill="none" stroke="#fff" stroke-width="0.8" opacity="0.45" stroke-linecap="round"/>
  <!-- Stem -->
  <path d="M15 4 C14.5 7, 14 10, 14 13" fill="none" stroke="#1A7A48" stroke-width="1.2" stroke-linecap="round"/>
</svg>
