<svg xmlns="http://www.w3.org/2000/svg" viewBox="0 0 420 140" width="420" height="140">
  <defs>
    <linearGradient id="leafGrad" x1="0%" y1="0%" x2="100%" y2="100%">
      <stop offset="0%" stop-color="#3DBC7F"/>
      <stop offset="100%" stop-color="#2A8A5A"/>
    </linearGradient>
    <linearGradient id="docGrad" x1="0%" y1="0%" x2="100%" y2="100%">
      <stop offset="0%" stop-color="#2A3530"/>
      <stop offset="100%" stop-color="#1E2924"/>
    </linearGradient>
    <filter id="shadow">
      <feDropShadow dx="2" dy="3" stdDeviation="5" flood-color="#000" flood-opacity="0.4"/>
    </filter>
    <filter id="glow">
      <feDropShadow dx="0" dy="0" stdDeviation="5" flood-color="#3DBC7F" flood-opacity="0.5"/>
    </filter>
  </defs>

  <rect width="420" height="140" fill="#0F1A14"/>

  <g filter="url(#shadow)">
    <rect x="14" y="18" width="72" height="92" rx="8" fill="url(#docGrad)"/>
    <path d="M66 18 L86 18 L86 38 Z" fill="#2A3530"/>
    <path d="M66 18 L86 38 L66 38 Z" fill="#151F1A"/>
    <line x1="26" y1="52" x2="62" y2="52" stroke="#4A6357" stroke-width="2.5" stroke-linecap="round"/>
    <line x1="26" y1="63" x2="74" y2="63" stroke="#4A6357" stroke-width="2.5" stroke-linecap="round"/>
    <line x1="26" y1="74" x2="68" y2="74" stroke="#4A6357" stroke-width="2.5" stroke-linecap="round"/>
    <line x1="26" y1="85" x2="56" y2="85" stroke="#4A6357" stroke-width="2.5" stroke-linecap="round"/>
  </g>

  <g filter="url(#glow)">
    <path d="M72 22 C82 5, 108 8, 104 30 C100 50, 76 46, 72 22 Z" fill="url(#leafGrad)"/>
    <path d="M72 22 C85 30, 96 38, 104 30" fill="none" stroke="#fff" stroke-width="1.2" opacity="0.4" stroke-linecap="round"/>
    <path d="M78 28 C82 24, 86 23, 88 22" fill="none" stroke="#fff" stroke-width="0.8" opacity="0.3" stroke-linecap="round"/>
    <path d="M82 34 C86 30, 92 29, 95 28" fill="none" stroke="#fff" stroke-width="0.8" opacity="0.3" stroke-linecap="round"/>
    <path d="M72 22 C71 26, 70 32, 70 38" fill="none" stroke="#2A8A5A" stroke-width="2" stroke-linecap="round"/>
  </g>

  <text x="112" y="82" font-family="Georgia, 'Times New Roman', serif" font-size="46" font-weight="700" letter-spacing="-1">
    <tspan fill="#D6EDE2">living</tspan><tspan fill="#3DBC7F">docs</tspan>
  </text>
  <text x="114" y="105" font-family="Georgia, serif" font-size="12.5" fill="#5A8070" letter-spacing="2.5" font-style="italic">documents that grow</text>
</svg>
